# xmcd CD database file
#
# Track frame offsets:
#	187
#	12702
#	28715
#	42457
#	61420
#	78300
#	96845
#	111432
#	124075
#	141440
#	167677
#	194295
#	220050
#	246837
#
# Disc length: 3627 seconds
#
# Revision: 0
# Processed by: cddbd v1.5.1PL0 Copyright (c) Steve Scherf et al.
# Submitted via: CDex 1.51
#
DISCID=cc0e290e
DTITLE=THE STREET BEATS - BEST MINDS　DISC2
DYEAR=1996
DGENRE=ロック (日本)
TTITLE0=REBEL SONG
TTITLE1=ONE NIGHT STAND
TTITLE2=街の灯
TTITLE3=悪魔と踊れ
TTITLE4=傷だらけの週末-REMIX-
TTITLE5=Sing a song くりびるに歌を
TTITLE6=青春の光と影
TTITLE7=LONESOME RAMBLE BOY
TTITLE8=青の季節
TTITLE9=風の街の天使-REMIX-
TTITLE10=I WANNA CHANGE
TTITLE11=約束できない-BALLAD VERSION-
TTITLE12=親愛なる者
TTITLE13=GOODHEART,BIG HEART
EXTD=YEAR: 1996
EXTT0=
EXTT1=
EXTT2=
EXTT3=
EXTT4=
EXTT5=
EXTT6=
EXTT7=
EXTT8=
EXTT9=
EXTT10=
EXTT11=
EXTT12=
EXTT13=
PLAYORDER=
